<svg height="512" viewBox="0 0 512 512" width="512" xmlns="http://www.w3.org/2000/svg"><g id="filled_outline" data-name="filled outline"><path d="m400 352v49a14 14 0 0 1 -5.6 11.2l-26.4 19.8v-80z" fill="#f5d3bd"/><path d="m305.041 70.959-49.041 49.041-49.041-49.041a23.758 23.758 0 0 1 -6.959-16.8 23.759 23.759 0 0 1 23.759-23.759 23.758 23.758 0 0 1 16.8 6.959l15.441 15.441 15.441-15.441a23.758 23.758 0 0 1 16.8-6.959 23.759 23.759 0 0 1 23.759 23.759 23.758 23.758 0 0 1 -6.959 16.8z" fill="#f16465"/><path d="m168 184h64a0 0 0 0 1 0 0v48a32 32 0 0 1 -32 32 32 32 0 0 1 -32-32v-48a0 0 0 0 1 0 0z" fill="#e8c8b3"/><path d="m176 251 32 5v32h-32z" fill="#e8c8b3"/><path d="m256 168a16 16 0 0 1 -16 16h-40l-8 24h-16l-8 32a16 16 0 0 1 -16-16v-42a30 30 0 0 1 30-30h58a16 16 0 0 1 16 16z" fill="#683b0d"/><path d="m144 288h112v200h-112z" fill="#0bafea"/><path d="m312 184a32 32 0 0 1 32 32v48a0 0 0 0 1 0 0h-64a0 0 0 0 1 0 0v-48a32 32 0 0 1 32-32z" fill="#f5d3bd" transform="matrix(-1 0 0 -1 624 448)"/><path d="m304 256h32v32h-32z" fill="#f5d3bd" transform="matrix(-1 0 0 -1 640 544)"/><path d="m256 168a16 16 0 0 0 16 16h21.624a25.049 25.049 0 0 1 17.713 7.337 25.048 25.048 0 0 1 7.143 20.82l-4.372 34.982a15 15 0 0 0 14.884 16.861h39.008v-72a40 40 0 0 0 -40-40h-56a16 16 0 0 0 -16 16z" fill="#ea9d2d"/><path d="m368 288h-112v200h112v-136h32v-32a32 32 0 0 0 -32-32z" fill="#f16465"/><path d="m304 304 40 16 34.142-34.142a20 20 0 0 1 14.142-5.858h17.716a14 14 0 0 1 14 14v20a14 14 0 0 1 -14 14h-10l-48 40-48-16z" fill="#e8c8b3"/><path d="m144 288a32 32 0 0 0 -32 32v32h32z" fill="#0bafea"/><path d="m112 352v49a14 14 0 0 0 5.6 11.2l26.4 19.8v-80z" fill="#e8c8b3"/><path d="m127 416h18l8 8h56l47-48v-40l41 13v43l-64 64h-80l-8 8h-18a14 14 0 0 1 -14-14v-20a14 14 0 0 1 14-14z" fill="#f5d3bd"/><path d="m256 288 48 16v48l-48-16-6-1 .069-46.709z" fill="#0bafea"/><path d="m250.343 125.657a8 8 0 0 0 11.314 0l49.043-49.041a31.759 31.759 0 0 0 -44.916-44.916l-9.784 9.786-9.784-9.786a31.759 31.759 0 0 0 -44.916 44.916zm-26.584-87.257a15.647 15.647 0 0 1 11.141 4.616l15.442 15.441a8 8 0 0 0 11.314 0l15.444-15.441a15.758 15.758 0 1 1 22.284 22.284l-43.384 43.387-43.384-43.387a15.759 15.759 0 0 1 11.143-26.9z"/><path d="m410 272h-17.716a27.821 27.821 0 0 0 -19.8 8.2l-.735.735c-1.118-.595-27.749-.935-27.749-.935v-8h24a8 8 0 0 0 8-8v-72a48.053 48.053 0 0 0 -48-48h-56a23.9 23.9 0 0 0 -16 6.131 23.9 23.9 0 0 0 -16-6.131h-58a38.043 38.043 0 0 0 -38 38v42a24.041 24.041 0 0 0 19.117 23.5 39.843 39.843 0 0 0 4.883 8.529v23.971h-24a40.045 40.045 0 0 0 -40 40v81a22.123 22.123 0 0 0 5.983 15.073 21.9 21.9 0 0 0 -4.983 13.927v20a22.025 22.025 0 0 0 22 22h9v16a8 8 0 0 0 8 8h224a8 8 0 0 0 8-8v-52l23.2-17.4a22.11 22.11 0 0 0 8.8-17.6v-65h2a22.025 22.025 0 0 0 22-22v-20a22.025 22.025 0 0 0 -22-22zm-227.293-23.353a8.055 8.055 0 0 0 -1.545-1.754 23.912 23.912 0 0 1 -4.409-8.921l5.493-21.972h9.754a8 8 0 0 0 7.59-5.47l6.176-18.53h18.234v40a24 24 0 0 1 -41.293 16.647zm57.293-16.647v-40a23.9 23.9 0 0 0 16-6.131 23.9 23.9 0 0 0 16 6.131v40a40.052 40.052 0 0 0 24 36.65v11.35h-80v-11.35a40.052 40.052 0 0 0 24-36.65zm53.624-40a17.05 17.05 0 0 1 16.918 19.165l-4.373 34.982a22.994 22.994 0 0 0 .755 9.308 24.039 24.039 0 0 1 -18.924-23.455v-40zm13.347 104.572c-.054-.021-.111-.034-.165-.054-.093-.035-.181-.076-.276-.108l-1.23-.41h51.386l-14.613 14.613zm5.029-16.572v-8a40.069 40.069 0 0 0 9.7-1.189 22.956 22.956 0 0 0 6.3 1.162v8.027zm-40-120h56a32.036 32.036 0 0 1 32 32v64h-31.008a7 7 0 0 1 -6.946-7.868l4.373-34.983a33.05 33.05 0 0 0 -32.795-37.149h-21.624a8 8 0 0 1 0-16zm-112 22a22.025 22.025 0 0 1 22-22h58a8 8 0 0 1 0 16h-40a8 8 0 0 0 -7.59 5.47l-6.176 18.53h-10.234a8 8 0 0 0 -7.761 6.06l-5.9 23.589a7.974 7.974 0 0 1 -2.339-5.649zm24 86.676a40.023 40.023 0 0 0 16 3.324v8h-16zm-64 51.324a24.028 24.028 0 0 1 24-24h110.7l41.3 13.767v33.256l-37.092-14.475a8 8 0 0 0 -10.908 7.452v36.735l-42.363 43.265h-49.324l-4.313-4.314v-59.686a8 8 0 0 0 -8-8h-24zm7 88c-.536 0-1.065.026-1.591.064-.027-.021-.051-.045-.079-.066l-2.929-2.2a6.03 6.03 0 0 1 -2.401-4.798v-41h16v48zm-6 42v-20a6.006 6.006 0 0 1 6-6h14.687l5.656 5.657a8 8 0 0 0 5.657 2.343h56a8 8 0 0 0 5.716-2.4l47-48a8 8 0 0 0 2.284-5.6v-28.29l25 9.756v31.221l-59.313 59.313h-76.687a8 8 0 0 0 -5.657 2.343l-5.656 5.657h-14.687a6.006 6.006 0 0 1 -6-6zm31 18.314 4.313-4.314h76.687a8 8 0 0 0 5.657-2.343l9.343-9.343v27.686h-96zm112 11.686v-43.686l38.657-38.657a8 8 0 0 0 2.343-5.657v-31.233l44.47 14.823a8 8 0 0 0 7.651-1.444l2.879-2.4v108.254zm128-128.1-7.992-.159 7.992-6.661zm-2.4 53.9-13.6 10.2v-48.417l16 .319v33.098a6.031 6.031 0 0 1 -2.4 4.8zm26.4-91.8a6.006 6.006 0 0 1 -6 6h-10a8 8 0 0 0 -5.121 1.854l-44.579 37.146-38.3-12.766v-30.418l29.029 11.612a8 8 0 0 0 8.628-1.771l34.143-34.142a11.915 11.915 0 0 1 8.484-3.515h17.716a6.006 6.006 0 0 1 6 6z"/></g></svg>